<svg viewBox="0 0 289.602 246.257">
  <!--
  Jersey by ellemenno
  remix of DinosoftLab: https://thenounproject.com/search/?q=jersey&i=1444305
  CC0 https://creativecommons.org/publicdomain/zero/1.0/
  -->
  <path d="M289.475 188.07L248.619 19.348a4.5 4.5 0 00-1.834-2.655L223.526.786a4.5 4.5 0 00-2.54-.786h-29.828a4.5 4.5 0 00-1.9.422l-42.2 19.69L104.237.414a4.493 4.493 0 00-1.881-.412H72.872a4.5 4.5 0 00-2.323.646L44.163 16.553a4.5 4.5 0 00-2.044 2.767L.137 188.042a4.5 4.5 0 003 5.374l32.229 10.285a4.5 4.5 0 005.739-3.215l26.41-107.672v148.943a4.5 4.5 0 004.5 4.5h148.286a4.5 4.5 0 004.5-4.5V95.022l24.372 105.406a4.5 4.5 0 005.78 3.264l31.542-10.285a4.5 4.5 0 002.98-5.337zm-101.518-75.642a7.855 7.855 0 01-5.1 1.479h-11.758l-3.536 25.139h10.443q6.579 0 6.579 5.5a4.672 4.672 0 01-1.727 3.7 6.123 6.123 0 01-4.521 1.568h-12.5l-4.358 30.89a9.33 9.33 0 01-1.644 5.258 6.8 6.8 0 01-4.6 1.314q-5.676 0-6.251-6.161a4.613 4.613 0 00.411-1.725l4.353-29.576h-20.23l-4.194 30.89q-.492 4.028-1.891 5.258a7.143 7.143 0 01-4.687 1.314q-5.428 0-5.921-6.161a7.611 7.611 0 00.329-2.054l3.947-29.247h-10.855a6.677 6.677 0 01-4.523-1.561 5.51 5.51 0 01-1.973-3.7q.492-5.5 7.236-5.5h11.76l3.536-25.139h-10.773a6.964 6.964 0 01-4.687-1.479 5.436 5.436 0 01-2.22-3.7 6.518 6.518 0 012.056-4.19 5.953 5.953 0 014.523-1.731h12.417l4.769-31.3q.492-4.189 1.974-5.176a7.992 7.992 0 014.276-1.068q5.508 0 5.509 5.916v2.053l-3.865 29.575h19.737l4.522-31.629q.576-3.451 1.975-4.683a8 8 0 014.6-1.233q5.508 0 5.509 7.641l-4.189 29.904h10.443a6.924 6.924 0 015.1 1.725 5.75 5.75 0 011.809 4.19 4.739 4.739 0 01-1.81 3.699z"/>
  <path d="M135.245 139.047H154.9l3.7-25.14h-19.983l-3.372 25.14z"/>
</svg>
