<svg viewBox="0 0 100 100">
  <!--
  Whistle by Danishicon, ID  https://thenounproject.com/danishicon/
  CCBY https://creativecommons.org/licenses/by/3.0/us/legalcode
  -->
  <path d="M38.288 20.997a2 1.993 0 00-1.856 1.472l-1.949 6.813a2 1.993 0 103.847 1.092l1.949-6.813a2 1.993 0 00-1.991-2.564zM28.3 21.772a2 1.993 0 00-1.975 2.375l1.346 7.413a2 1.993 0 103.936-.71l-1.347-7.413a2 1.993 0 00-1.96-1.665zM17.519 26.9a2 1.993 0 00-1.342 3.517l5.775 4.978a2 1.993 0 102.618-3.014l-5.776-4.978a2 1.993 0 00-1.275-.503zM37.375 35.16c-10.252-.082-19.048 6.881-21.594 16.344-.965-.553-2.095-.906-3.281-.906-3.585 0-6.5 2.936-6.5 6.5 0 3.544 2.915 6.469 6.5 6.469a6.643 6.643 0 003.281-.875c2.51 9.362 11.131 16.312 21.407 16.312 9.13 0 16.95-5.51 20.343-13.281.035-.08.092-.17.125-.25 2.912-7.603 8.238-11.918 13.625-14.563 5.792-2.755 12.817-3.75 20.532-3.75 1.153 0 2.187-1.016 2.187-2.156v-7.656c0-1.14-1.034-2.187-2.187-2.188H38c-.234.01-.422-.012-.625 0zm24.063 4.344h1.53v2.406h-1.53v-2.406zm-24.25 3.5c7.828 0 14.28 6.315 14.28 14.094 0 7.78-6.452 14.125-14.28 14.125-7.861 0-14.313-6.346-14.313-14.125 0-7.78 6.452-14.094 14.313-14.094zM12.5 54.973c1.236 0 2.188.903 2.188 2.125 0 1.164-.952 2.125-2.188 2.125-1.177 0-2.094-.961-2.094-2.125 0-1.222.917-2.125 2.094-2.125z"/>
  <path d="M37.195 47.365c5.444 0 9.86 4.327 9.86 9.746 0 5.418-4.416 9.746-9.86 9.746-5.49 0-9.898-4.328-9.898-9.746 0-5.419 4.408-9.746 9.898-9.746z"/>
</svg>